# Blender v2.64 (sub 0) OBJ File: 'hero-06.blend'
# www.blender.org
mtllib hero-06.mtl
o Cube_Cube.001
v -0.063368 0.323298 -0.109990
v -0.042514 0.224782 -0.764477
v -0.173474 0.009068 -0.764477
v -0.252826 0.009068 -0.109990
v 0.071706 0.323298 -0.109990
v 0.050852 0.224782 0.814391
v 0.181812 0.009068 0.814391
v 0.261164 0.009068 -0.109990
v -0.042514 0.224782 0.814391
v -0.042514 0.199262 1.053488
v 0.050852 0.199262 1.053488
v 0.181812 0.009068 -0.764477
v 0.050852 0.224782 -0.764477
v -0.173474 0.009068 0.814391
v 0.004169 0.003400 -1.113330
v 0.050852 0.246327 1.270161
v 0.181812 0.162235 1.373283
v 0.181812 0.034588 1.192825
v -0.173474 0.034588 1.192825
v -0.042514 0.246327 1.270161
v -0.173474 0.162235 1.373283
vt 0.170631 0.410448
vt 0.160551 0.154485
vt 0.211504 0.150933
vt 0.244344 0.405277
vt 0.118053 0.410851
vt 0.128916 0.768910
vt 0.077915 0.766139
vt 0.044270 0.406811
vt 0.165259 0.768631
vt 0.165969 0.861261
vt 0.129626 0.861539
vt 0.445476 0.596652
vt 0.416078 0.851539
vt 0.277780 0.852349
vt 0.245400 0.597824
vt 0.124208 0.154763
vt 0.216212 0.765079
vt 0.073207 0.151993
vt 0.412481 0.237092
vt 0.274183 0.237902
vt 0.141315 0.015683
vt 0.347724 0.987755
vt 0.130278 0.946510
vt 0.079599 0.985781
vt 0.079046 0.913716
vt 0.217343 0.912656
vt 0.273319 0.090413
vt 0.411618 0.089603
vt 0.166621 0.946232
vt 0.217896 0.984721
vt 0.272902 0.019113
vt 0.411200 0.018304
vn -0.850099 0.516095 -0.104771
vn -0.851806 0.513577 -0.103275
vn 0.852436 0.517514 0.074385
vn 0.854080 0.514949 0.073317
vn -0.000000 0.994352 0.106132
vn -0.000000 -1.000000 -0.000000
vn 0.000000 0.988860 -0.148847
vn -0.852512 0.517560 0.073183
vn -0.854028 0.514917 0.074144
vn 0.851702 0.513515 -0.104434
vn 0.850250 0.516187 -0.103087
vn -0.000000 0.994369 0.105975
vn 0.000000 0.844335 -0.535815
vn -0.781341 0.474352 -0.405582
vn 0.781341 0.474352 -0.405582
vn 0.000000 -0.999868 0.016245
vn 0.699548 0.583390 -0.412661
vn 0.824057 0.553598 -0.120251
vn -0.854281 0.518634 -0.034974
vn -0.751016 0.656554 0.070077
vn 0.000000 -0.997734 0.067283
vn 0.798446 0.600702 -0.040509
vn 0.853495 0.518157 0.055306
vn -0.000000 0.774990 0.631974
vn 0.000000 0.977212 -0.212267
vn 0.000000 -0.816403 0.577483
vn -0.622129 0.765073 -0.166187
vn -0.853937 0.424837 -0.300508
usemtl Material.002
s off
f 1/1/1 2/2/1 3/3/1
f 1/1/2 3/3/2 4/4/2
f 5/5/3 6/6/3 7/7/3
f 5/5/4 7/7/4 8/8/4
f 6/6/5 9/9/5 10/10/5
f 6/6/5 10/10/5 11/11/5
f 4/12/6 3/13/6 12/14/6
f 4/12/6 12/14/6 8/15/6
f 5/5/7 13/16/7 2/2/7
f 2/2/7 1/1/7 5/5/7
f 4/4/8 14/17/8 9/9/8
f 9/9/9 1/1/9 4/4/9
f 13/16/10 5/5/10 8/8/10
f 13/16/11 8/8/11 12/18/11
f 14/19/6 4/12/6 8/15/6
f 14/19/6 8/15/6 7/20/6
f 5/5/12 1/1/12 6/6/12
f 6/6/12 1/1/12 9/9/12
f 2/2/13 13/16/13 15/21/13
f 15/21/14 3/3/14 2/2/14
f 13/16/15 12/18/15 15/21/15
f 12/14/16 3/13/16 15/22/16
f 16/23/17 17/24/17 18/25/17
f 16/23/18 18/25/18 11/11/18
f 9/9/19 14/17/19 19/26/19
f 9/9/20 19/26/20 10/10/20
f 14/19/21 7/20/21 18/27/21
f 14/19/21 18/27/21 19/28/21
f 11/11/22 18/25/22 7/7/22
f 11/11/23 7/7/23 6/6/23
f 16/23/24 20/29/24 21/30/24
f 16/23/24 21/30/24 17/24/24
f 11/11/25 10/10/25 20/29/25
f 11/11/25 20/29/25 16/23/25
f 19/28/26 18/27/26 17/31/26
f 19/28/26 17/31/26 21/32/26
f 21/30/27 20/29/27 10/10/27
f 21/30/28 10/10/28 19/26/28
