# Blender v2.64 (sub 0) OBJ File: 'info_pod-01.blend'
# www.blender.org
mtllib info_pod-03.mtl
o Cylinder
v 0.000000 -0.001000 -2.000000
v -0.000000 0.107189 -1.400000
v 1.563663 -0.001000 -1.246980
v 1.094564 0.107189 -0.872886
v 1.949856 -0.001000 0.445042
v 1.364899 0.107189 0.311529
v 0.867767 -0.001000 1.801938
v 0.607437 0.107189 1.261356
v -0.867768 -0.001000 1.801938
v -0.607437 0.107189 1.261356
v -1.949856 -0.001000 0.445042
v -1.364899 0.107189 0.311529
v -1.563663 -0.001000 -1.246979
v -1.094564 0.107189 -0.872885
vt 0.289865 0.035416
vt 0.353511 0.168014
vt 0.167530 0.400612
vt 0.024178 0.367699
vt 0.233425 0.691040
vt 0.118313 0.782596
vt 0.501575 0.820600
vt 0.501386 0.967682
vt 0.770059 0.691731
vt 0.884934 0.783583
vt 0.836702 0.401474
vt 0.980138 0.368930
vt 0.651320 0.168398
vt 0.715307 0.035964
vn 0.085147 0.980555 -0.176809
vn 0.191323 0.980555 -0.043668
vn 0.153429 0.980555 0.122355
vn -0.000000 0.980555 0.196243
vn -0.153429 0.980555 0.122355
vn -0.000000 1.000000 0.000000
vn -0.085147 0.980555 -0.176809
vn -0.191323 0.980555 -0.043668
usemtl Material.001
s off
f 1/1/1 2/2/1 4/3/1 3/4/1
f 3/4/2 4/3/2 6/5/2 5/6/2
f 5/6/3 6/5/3 8/7/3 7/8/3
f 7/8/4 8/7/4 10/9/4 9/10/4
f 9/10/5 10/9/5 12/11/5 11/12/5
f 4/3/6 2/2/6 14/13/6
f 4/3/6 14/13/6 6/5/6
f 14/13/6 12/11/6 6/5/6
f 12/11/6 8/7/6 6/5/6
f 12/11/6 10/9/6 8/7/6
f 2/2/7 1/1/7 13/14/7 14/13/7
f 11/12/8 12/11/8 14/13/8 13/14/8
