# Blender v2.64 (sub 0) OBJ File: 'level_select_worl-01.blend'
# www.blender.org
mtllib level_select_worl-02.mtl
o Plane.000
v -33.000000 7.000024 18.999950
v 5.000000 6.999976 19.000042
v -33.000000 -0.999976 18.999954
v 5.000000 -1.000024 19.000050
v -32.999962 7.000024 -18.999998
v -33.000034 6.999976 19.000000
v -32.999966 -0.999976 -19.000000
v -33.000038 -1.000024 19.000000
v 4.999987 6.999976 19.000000
v 5.000011 7.000024 -18.999998
v 4.999989 -1.000024 19.000000
v 5.000013 -0.999976 -19.000000
v 5.000000 -1.000000 -19.000006
v -33.000000 -1.000000 -19.000006
v 5.000000 7.000000 -18.999994
v -33.000000 7.000000 -18.999994
vt 2.563782 0.974584
vt -1.736947 0.974584
vt -1.736946 0.069167
vt 2.563783 0.069167
vt 2.539908 0.041757
vt 2.539909 0.947174
vt -1.760819 0.947175
vt -1.760820 0.041758
vt -1.736945 0.969280
vt -1.736943 0.063863
vt 2.563782 0.063863
vt 2.563781 0.969281
vt 2.539909 0.067399
vt 2.539909 0.972816
vt -1.760820 0.972816
vt -1.760820 0.067399
vn -0.000002 0.000001 1.000000
vn 1.000000 -0.000000 0.000002
vn -1.000000 -0.000000 -0.000001
vn 0.000000 0.000001 -1.000000
usemtl Material.002
s off
f 2/1/1 1/2/1 3/3/1
f 2/1/1 3/3/1 4/4/1
f 7/5/2 5/6/2 6/7/2
f 7/5/2 6/7/2 8/8/2
f 11/9/3 9/10/3 10/11/3
f 11/9/3 10/11/3 12/12/3
f 15/13/4 13/14/4 14/15/4
f 15/13/4 14/15/4 16/16/4
o Plane.001_Plane.002
v 6.000000 0.000000 20.000000
v -34.000000 0.000000 20.000000
v 6.000000 -0.000000 -20.000000
v -34.000000 -0.000000 -20.000000
v 2.000000 0.000000 20.000000
v -2.000000 0.000000 20.000000
v -5.999999 0.000000 20.000000
v -10.000000 0.000000 20.000000
v -14.000000 0.000000 20.000000
v -18.000000 0.000000 20.000000
v -22.000000 0.000000 20.000000
v -26.000000 0.000000 20.000000
v -30.000000 0.000000 20.000000
v 2.000000 -0.000000 -20.000000
v -2.000000 -0.000000 -20.000000
v -5.999999 -0.000000 -20.000000
v -10.000000 -0.000000 -20.000000
v -14.000000 -0.000000 -20.000000
v -18.000000 -0.000000 -20.000000
v -22.000000 -0.000000 -20.000000
v -26.000000 -0.000000 -20.000000
v -30.000000 -0.000000 -20.000000
v -34.000000 -0.000000 -16.000000
v -34.000000 -0.000000 -12.000000
v -34.000000 -0.000000 -8.000001
v -34.000000 -0.000000 -4.000000
v -34.000000 -0.000000 0.000000
v -34.000000 0.000000 4.000000
v -34.000000 0.000000 8.000000
v -34.000000 0.000000 12.000000
v -34.000000 -0.000000 16.000000
v 6.000000 -0.000000 16.000000
v 6.000000 0.000000 12.000000
v 6.000000 0.000000 8.000000
v 6.000000 0.000000 4.000000
v 6.000000 -0.000000 0.000000
v 6.000000 -0.000000 -4.000000
v 6.000000 -0.000000 -8.000000
v 6.000000 -0.000000 -12.000000
v 6.000000 -0.000000 -16.000000
v 2.000000 -0.000000 -16.000000
v 2.000000 -0.000000 -12.000000
v 2.000000 -0.000000 -8.000001
v 2.000000 -0.000000 -4.000000
v 2.000000 -0.000000 0.000000
v 2.000000 0.000000 4.000000
v 2.000000 0.000000 8.000000
v 2.000000 0.000000 12.000000
v 2.000000 -0.000000 16.000000
v -2.000000 -0.000000 -16.000000
v -2.000000 -0.000000 -12.000000
v -2.000000 -0.000000 -8.000001
v -2.000000 -0.000000 -4.000000
v -2.000000 -0.000000 0.000000
v -2.000000 0.000000 4.000000
v -2.000000 0.000000 8.000000
v -2.000000 0.000000 12.000000
v -2.000000 -0.000000 16.000000
v -5.999999 -0.000000 -16.000000
v -5.999999 -0.000000 -12.000000
v -5.999999 -0.000000 -8.000001
v -5.999999 -0.000000 -4.000000
v -5.999999 -0.000000 0.000000
v -5.999999 0.000000 4.000000
v -5.999999 0.000000 8.000000
v -5.999999 0.000000 12.000000
v -5.999999 -0.000000 16.000000
v -10.000000 -0.000000 -16.000000
v -10.000000 -0.000000 -12.000000
v -10.000000 -0.000000 -8.000001
v -10.000000 -0.000000 -4.000000
v -10.000000 -0.000000 0.000000
v -10.000000 0.000000 4.000000
v -10.000000 0.000000 8.000000
v -10.000000 0.000000 12.000000
v -10.000000 -0.000000 16.000000
v -14.000000 -0.000000 -16.000000
v -14.000000 -0.000000 -12.000000
v -14.000000 -0.000000 -8.000001
v -14.000000 -0.000000 -4.000000
v -14.000000 -0.000000 0.000000
v -14.000000 0.000000 4.000000
v -14.000000 0.000000 8.000000
v -14.000000 0.000000 12.000000
v -14.000000 -0.000000 16.000000
v -18.000000 -0.000000 -16.000000
v -18.000000 -0.000000 -12.000000
v -18.000000 -0.000000 -8.000001
v -18.000000 -0.000000 -4.000000
v -18.000000 -0.000000 0.000000
v -18.000000 0.000000 4.000000
v -18.000000 0.000000 8.000000
v -18.000000 0.000000 12.000000
v -18.000000 -0.000000 16.000000
v -22.000000 -0.000000 -16.000000
v -22.000000 -0.000000 -12.000000
v -22.000000 -0.000000 -8.000001
v -22.000000 -0.000000 -4.000000
v -22.000000 -0.000000 0.000000
v -22.000000 0.000000 4.000000
v -22.000000 0.000000 8.000000
v -22.000000 0.000000 12.000000
v -22.000000 -0.000000 16.000000
v -26.000000 -0.000000 -16.000000
v -26.000000 -0.000000 -12.000000
v -26.000000 -0.000000 -8.000001
v -26.000000 -0.000000 -4.000000
v -26.000000 -0.000000 0.000000
v -26.000000 0.000000 4.000000
v -26.000000 0.000000 8.000000
v -26.000000 0.000000 12.000000
v -26.000000 -0.000000 16.000000
v -30.000000 -0.000000 -16.000000
v -30.000000 -0.000000 -12.000000
v -30.000000 -0.000000 -8.000001
v -30.000000 -0.000000 -4.000000
v -30.000000 -0.000000 0.000000
v -30.000000 0.000000 4.000000
v -30.000000 0.000000 8.000000
v -30.000000 0.000000 12.000000
v -30.000000 -0.000000 16.000000
vt 0.099997 0.899984
vt 0.099995 0.999979
vt 0.000000 0.999978
vt 0.000002 0.899982
vt 0.000001 0.100011
vt 0.000000 0.000014
vt 0.099997 0.000013
vt 0.099998 0.100010
vt 0.099999 0.200007
vt 0.000002 0.200008
vt 0.100000 0.300004
vt 0.000003 0.300005
vt 0.100000 0.400001
vt 0.000003 0.400002
vt 0.100000 0.499998
vt 0.000004 0.499998
vt 0.100000 0.599995
vt 0.000004 0.599995
vt 0.099999 0.699992
vt 0.000003 0.699991
vt 0.099998 0.799988
vt 0.000002 0.799987
vt 0.999982 0.000000
vt 0.999983 0.100000
vt 0.899984 0.100001
vt 0.899982 0.000002
vt 0.799984 0.100003
vt 0.799983 0.000004
vt 0.699985 0.100004
vt 0.699984 0.000005
vt 0.599987 0.100005
vt 0.599985 0.000007
vt 0.499988 0.100006
vt 0.499987 0.000008
vt 0.399990 0.100007
vt 0.399989 0.000010
vt 0.299993 0.100008
vt 0.299992 0.000011
vt 0.199995 0.100009
vt 0.199994 0.000012
vt 0.999984 0.200000
vt 0.899985 0.200001
vt 0.799985 0.200002
vt 0.699986 0.200003
vt 0.599988 0.200004
vt 0.499989 0.200005
vt 0.399991 0.200005
vt 0.299994 0.200006
vt 0.199996 0.200007
vt 0.999985 0.300000
vt 0.899985 0.300000
vt 0.799986 0.300001
vt 0.699987 0.300002
vt 0.599988 0.300002
vt 0.499990 0.300003
vt 0.399992 0.300003
vt 0.299994 0.300004
vt 0.199997 0.300004
vt 0.999985 0.400000
vt 0.899985 0.400000
vt 0.799986 0.400000
vt 0.699987 0.400000
vt 0.599988 0.400001
vt 0.499990 0.400001
vt 0.399992 0.400001
vt 0.299994 0.400001
vt 0.199997 0.400001
vt 0.999985 0.499999
vt 0.899986 0.499999
vt 0.799986 0.499999
vt 0.699987 0.500000
vt 0.599988 0.499999
vt 0.499990 0.499999
vt 0.399992 0.499999
vt 0.299994 0.499999
vt 0.199997 0.499998
vt 0.999985 0.599999
vt 0.899986 0.599999
vt 0.799986 0.599999
vt 0.699987 0.599999
vt 0.599988 0.599998
vt 0.499990 0.599997
vt 0.399992 0.599997
vt 0.299994 0.599996
vt 0.199997 0.599995
vt 0.999985 0.699999
vt 0.899985 0.699999
vt 0.799986 0.699998
vt 0.699986 0.699998
vt 0.599987 0.699997
vt 0.499989 0.699996
vt 0.399991 0.699995
vt 0.299993 0.699994
vt 0.199996 0.699992
vt 0.999985 0.800000
vt 0.899984 0.799999
vt 0.799985 0.799998
vt 0.699985 0.799997
vt 0.599986 0.799996
vt 0.499987 0.799994
vt 0.399989 0.799993
vt 0.299992 0.799991
vt 0.199995 0.799989
vt 0.999983 0.900000
vt 0.899983 0.899999
vt 0.799983 0.899997
vt 0.699984 0.899996
vt 0.599984 0.899994
vt 0.499986 0.899993
vt 0.399987 0.899990
vt 0.299990 0.899988
vt 0.199993 0.899985
vt 0.999982 1.000000
vt 0.899982 0.999999
vt 0.799982 0.999997
vt 0.699982 0.999996
vt 0.599982 0.999994
vt 0.499983 0.999991
vt 0.399984 0.999988
vt 0.299987 0.999985
vt 0.199991 0.999981
vn 0.000000 1.000000 -0.000000
usemtl Material
s off
f 137/17/5 47/18/5 18/19/5
f 137/17/5 18/19/5 29/20/5
f 21/21/5 17/22/5 48/23/5
f 21/21/5 48/23/5 65/24/5
f 65/24/5 74/25/5 22/26/5
f 65/24/5 22/26/5 21/21/5
f 74/25/5 83/27/5 23/28/5
f 74/25/5 23/28/5 22/26/5
f 83/27/5 92/29/5 24/30/5
f 83/27/5 24/30/5 23/28/5
f 92/29/5 101/31/5 25/32/5
f 92/29/5 25/32/5 24/30/5
f 101/31/5 110/33/5 26/34/5
f 101/31/5 26/34/5 25/32/5
f 110/33/5 119/35/5 27/36/5
f 110/33/5 27/36/5 26/34/5
f 119/35/5 128/37/5 28/38/5
f 119/35/5 28/38/5 27/36/5
f 128/37/5 137/17/5 29/20/5
f 128/37/5 29/20/5 28/38/5
f 19/39/5 30/40/5 57/41/5
f 19/39/5 57/41/5 56/42/5
f 56/42/5 57/41/5 58/43/5
f 56/42/5 58/43/5 55/44/5
f 55/44/5 58/43/5 59/45/5
f 55/44/5 59/45/5 54/46/5
f 54/46/5 59/45/5 60/47/5
f 54/46/5 60/47/5 53/48/5
f 53/48/5 60/47/5 61/49/5
f 53/48/5 61/49/5 52/50/5
f 52/50/5 61/49/5 62/51/5
f 52/50/5 62/51/5 51/52/5
f 51/52/5 62/51/5 63/53/5
f 51/52/5 63/53/5 50/54/5
f 50/54/5 63/53/5 64/55/5
f 50/54/5 64/55/5 49/56/5
f 49/56/5 64/55/5 65/24/5
f 49/56/5 65/24/5 48/23/5
f 30/40/5 31/57/5 66/58/5
f 30/40/5 66/58/5 57/41/5
f 57/41/5 66/58/5 67/59/5
f 57/41/5 67/59/5 58/43/5
f 58/43/5 67/59/5 68/60/5
f 58/43/5 68/60/5 59/45/5
f 59/45/5 68/60/5 69/61/5
f 59/45/5 69/61/5 60/47/5
f 60/47/5 69/61/5 70/62/5
f 60/47/5 70/62/5 61/49/5
f 61/49/5 70/62/5 71/63/5
f 61/49/5 71/63/5 62/51/5
f 62/51/5 71/63/5 72/64/5
f 62/51/5 72/64/5 63/53/5
f 63/53/5 72/64/5 73/65/5
f 63/53/5 73/65/5 64/55/5
f 64/55/5 73/65/5 74/25/5
f 64/55/5 74/25/5 65/24/5
f 31/57/5 32/66/5 75/67/5
f 31/57/5 75/67/5 66/58/5
f 66/58/5 75/67/5 76/68/5
f 66/58/5 76/68/5 67/59/5
f 67/59/5 76/68/5 77/69/5
f 67/59/5 77/69/5 68/60/5
f 68/60/5 77/69/5 78/70/5
f 68/60/5 78/70/5 69/61/5
f 69/61/5 78/70/5 79/71/5
f 69/61/5 79/71/5 70/62/5
f 70/62/5 79/71/5 80/72/5
f 70/62/5 80/72/5 71/63/5
f 71/63/5 80/72/5 81/73/5
f 71/63/5 81/73/5 72/64/5
f 72/64/5 81/73/5 82/74/5
f 72/64/5 82/74/5 73/65/5
f 73/65/5 82/74/5 83/27/5
f 73/65/5 83/27/5 74/25/5
f 32/66/5 33/75/5 84/76/5
f 32/66/5 84/76/5 75/67/5
f 75/67/5 84/76/5 85/77/5
f 75/67/5 85/77/5 76/68/5
f 76/68/5 85/77/5 86/78/5
f 76/68/5 86/78/5 77/69/5
f 77/69/5 86/78/5 87/79/5
f 77/69/5 87/79/5 78/70/5
f 78/70/5 87/79/5 88/80/5
f 78/70/5 88/80/5 79/71/5
f 79/71/5 88/80/5 89/81/5
f 79/71/5 89/81/5 80/72/5
f 80/72/5 89/81/5 90/82/5
f 80/72/5 90/82/5 81/73/5
f 81/73/5 90/82/5 91/83/5
f 81/73/5 91/83/5 82/74/5
f 82/74/5 91/83/5 92/29/5
f 82/74/5 92/29/5 83/27/5
f 33/75/5 34/84/5 93/85/5
f 33/75/5 93/85/5 84/76/5
f 84/76/5 93/85/5 94/86/5
f 84/76/5 94/86/5 85/77/5
f 85/77/5 94/86/5 95/87/5
f 85/77/5 95/87/5 86/78/5
f 86/78/5 95/87/5 96/88/5
f 86/78/5 96/88/5 87/79/5
f 87/79/5 96/88/5 97/89/5
f 87/79/5 97/89/5 88/80/5
f 88/80/5 97/89/5 98/90/5
f 88/80/5 98/90/5 89/81/5
f 89/81/5 98/90/5 99/91/5
f 89/81/5 99/91/5 90/82/5
f 90/82/5 99/91/5 100/92/5
f 90/82/5 100/92/5 91/83/5
f 91/83/5 100/92/5 101/31/5
f 91/83/5 101/31/5 92/29/5
f 34/84/5 35/93/5 102/94/5
f 34/84/5 102/94/5 93/85/5
f 93/85/5 102/94/5 103/95/5
f 93/85/5 103/95/5 94/86/5
f 94/86/5 103/95/5 104/96/5
f 94/86/5 104/96/5 95/87/5
f 95/87/5 104/96/5 105/97/5
f 95/87/5 105/97/5 96/88/5
f 96/88/5 105/97/5 106/98/5
f 96/88/5 106/98/5 97/89/5
f 97/89/5 106/98/5 107/99/5
f 97/89/5 107/99/5 98/90/5
f 98/90/5 107/99/5 108/100/5
f 98/90/5 108/100/5 99/91/5
f 99/91/5 108/100/5 109/101/5
f 99/91/5 109/101/5 100/92/5
f 100/92/5 109/101/5 110/33/5
f 100/92/5 110/33/5 101/31/5
f 35/93/5 36/102/5 111/103/5
f 35/93/5 111/103/5 102/94/5
f 102/94/5 111/103/5 112/104/5
f 102/94/5 112/104/5 103/95/5
f 103/95/5 112/104/5 113/105/5
f 103/95/5 113/105/5 104/96/5
f 104/96/5 113/105/5 114/106/5
f 104/96/5 114/106/5 105/97/5
f 105/97/5 114/106/5 115/107/5
f 105/97/5 115/107/5 106/98/5
f 106/98/5 115/107/5 116/108/5
f 106/98/5 116/108/5 107/99/5
f 107/99/5 116/108/5 117/109/5
f 107/99/5 117/109/5 108/100/5
f 108/100/5 117/109/5 118/110/5
f 108/100/5 118/110/5 109/101/5
f 109/101/5 118/110/5 119/35/5
f 109/101/5 119/35/5 110/33/5
f 36/102/5 37/111/5 120/112/5
f 36/102/5 120/112/5 111/103/5
f 111/103/5 120/112/5 121/113/5
f 111/103/5 121/113/5 112/104/5
f 112/104/5 121/113/5 122/114/5
f 112/104/5 122/114/5 113/105/5
f 113/105/5 122/114/5 123/115/5
f 113/105/5 123/115/5 114/106/5
f 114/106/5 123/115/5 124/116/5
f 114/106/5 124/116/5 115/107/5
f 115/107/5 124/116/5 125/117/5
f 115/107/5 125/117/5 116/108/5
f 116/108/5 125/117/5 126/118/5
f 116/108/5 126/118/5 117/109/5
f 117/109/5 126/118/5 127/119/5
f 117/109/5 127/119/5 118/110/5
f 118/110/5 127/119/5 128/37/5
f 118/110/5 128/37/5 119/35/5
f 37/111/5 38/120/5 129/121/5
f 37/111/5 129/121/5 120/112/5
f 120/112/5 129/121/5 130/122/5
f 120/112/5 130/122/5 121/113/5
f 121/113/5 130/122/5 131/123/5
f 121/113/5 131/123/5 122/114/5
f 122/114/5 131/123/5 132/124/5
f 122/114/5 132/124/5 123/115/5
f 123/115/5 132/124/5 133/125/5
f 123/115/5 133/125/5 124/116/5
f 124/116/5 133/125/5 134/126/5
f 124/116/5 134/126/5 125/117/5
f 125/117/5 134/126/5 135/127/5
f 125/117/5 135/127/5 126/118/5
f 126/118/5 135/127/5 136/128/5
f 126/118/5 136/128/5 127/119/5
f 127/119/5 136/128/5 137/17/5
f 127/119/5 137/17/5 128/37/5
f 38/120/5 20/129/5 39/130/5
f 38/120/5 39/130/5 129/121/5
f 129/121/5 39/130/5 40/131/5
f 129/121/5 40/131/5 130/122/5
f 130/122/5 40/131/5 41/132/5
f 130/122/5 41/132/5 131/123/5
f 131/123/5 41/132/5 42/133/5
f 131/123/5 42/133/5 132/124/5
f 132/124/5 42/133/5 43/134/5
f 132/124/5 43/134/5 133/125/5
f 133/125/5 43/134/5 44/135/5
f 133/125/5 44/135/5 134/126/5
f 134/126/5 44/135/5 45/136/5
f 134/126/5 45/136/5 135/127/5
f 135/127/5 45/136/5 46/137/5
f 135/127/5 46/137/5 136/128/5
f 136/128/5 46/137/5 47/18/5
f 136/128/5 47/18/5 137/17/5
