# Blender v2.64 (sub 0) OBJ File: 'mpy_model_with_squares-02.blend'
# www.blender.org
mtllib mpy_model_with_squares-02.mtl
o Plane
v 37.190899 0.142544 -4.046402
v -2.809114 0.142544 -44.046402
v 21.190893 0.142544 19.953598
v 77.190903 12.142544 35.953598
v 73.190903 20.142544 7.953596
v 1.190887 0.142544 -4.046402
v 77.190903 0.142544 -4.046402
v 45.190891 0.142544 -40.046402
v -2.809113 0.142544 -4.046402
v 13.190891 0.142544 19.953598
v 45.190891 0.142544 -8.046402
v 1.190887 0.142544 -44.046402
v 77.190903 0.142544 35.953598
v 13.190891 0.142544 7.953596
v 45.190891 4.142544 -32.046402
v 53.190891 0.142544 -40.046402
v 13.190891 0.142544 23.953598
v 57.190891 0.142544 -8.046402
v 37.190899 0.142544 -32.046402
v 37.190899 0.142544 -40.046402
v 33.190895 0.142544 -40.046402
v 65.190895 8.142544 -4.046402
v 33.190895 0.142544 -32.046402
v 65.190895 10.142544 -24.046402
v 37.190899 0.142544 -8.046402
v 41.190887 0.142544 -28.046402
v 21.190893 0.142544 7.953596
v 65.190895 0.142544 -4.046402
v 41.190887 4.142544 -36.046402
v 37.190899 0.142544 35.953598
v 77.190903 0.142544 7.953598
v 13.190891 0.142544 -28.046402
v 13.190891 0.142544 -20.046402
v 65.190895 8.142544 -36.046402
v 5.190889 0.142544 -12.046402
v -2.809113 0.142544 3.953598
v 73.190903 0.142544 -4.046402
v 45.190891 0.142544 35.953598
v 65.190895 8.142544 -40.046402
v 9.190890 0.142544 -28.046402
v -2.809113 0.142544 19.953598
v 65.190895 10.142544 -36.046402
v 69.190887 12.142544 -20.046402
v 65.190895 4.142544 -36.046402
v 17.190891 0.142544 -8.046402
v 9.190890 0.142544 -36.046402
v 41.190887 8.142544 -36.046402
v 77.190903 0.142544 -4.046402
v 29.190895 0.142544 7.953596
v 29.190895 0.142544 23.953598
v 5.190889 0.142544 -20.046402
v 45.190891 0.142544 -28.046402
v 17.190891 0.142544 -20.046402
v 1.190887 0.142544 -36.046402
v 49.190891 0.142544 -40.046402
v -2.809114 0.142544 -28.046402
v 1.190887 0.142544 -28.046402
v 1.190888 0.142544 31.953598
v 1.190887 0.142544 -20.046402
v 1.190887 0.142544 -12.046402
v 77.190903 20.142544 -44.046402
v 37.190887 0.142544 35.953598
v 65.190895 0.142544 -8.046402
v 29.190895 0.142544 31.953598
v 53.190891 0.142544 -32.046402
v 1.190888 0.142544 7.953596
v 49.190891 0.142544 -28.046402
v 45.190891 4.142544 -40.046402
v 37.190887 0.142544 -4.046402
v 41.190887 0.142544 -40.046402
v 69.190887 10.142544 -36.046402
v 73.190903 20.142544 -4.046402
v 41.190887 0.142544 -32.046402
v 73.190903 20.142544 -4.046402
v 73.190903 0.142544 -44.046402
v 69.190887 12.142544 -8.046402
v 21.190893 0.142544 23.953598
v 77.190903 0.142544 -44.046402
v 45.190891 0.142544 7.953596
v 45.190891 0.142544 -32.046402
v 65.190895 8.142544 3.953598
v 49.190891 0.142544 -44.046402
v 69.190887 10.142544 -24.046402
v 41.190887 4.142544 -32.046402
v 37.190887 0.142544 -44.046402
v 37.190887 0.142544 -28.046402
v 37.190887 0.142544 -8.046402
v 65.190895 4.142544 -40.046402
v 65.190895 12.142544 -20.046402
v 77.190903 20.142544 -4.046402
v 77.190903 20.142544 7.953598
v 65.190895 0.142544 3.953598
v 77.190903 12.142544 7.953596
v 1.190888 0.142544 23.953598
v 57.190891 0.142544 -44.046402
v 69.190887 8.142544 3.953598
v -2.809113 0.142544 35.953598
v 41.190887 0.142544 -8.046402
v 73.190903 0.142544 -4.046402
v 13.190891 0.142544 31.953598
v 37.190887 0.142544 -4.046402
v 1.190888 0.142544 3.953598
v 21.190893 0.142544 31.953598
v 73.190903 0.142544 7.953596
v 69.190887 8.142544 -4.046402
v 77.190903 20.142544 -4.046402
v 69.190887 0.142544 -4.046402
v 37.190899 0.142544 -4.046402
v 69.190887 0.142544 -36.046402
v 69.190887 0.142544 -24.046402
v 69.190887 0.142544 -20.046402
v 29.190895 0.142544 19.953598
v 49.190891 0.142544 -32.046402
v 69.190887 0.142544 -8.046402
v 73.190903 20.142544 -44.046402
v 45.190891 12.142544 7.953596
v 65.190895 12.142544 -8.046402
v 45.190891 12.142544 35.953598
v 65.190895 0.142544 -24.046402
v 65.190895 0.142544 -20.046402
v 45.190891 4.142544 -36.046402
v 41.190887 8.142544 -40.046402
v 69.190887 0.142544 3.953598
v 65.190895 0.142544 -36.046402
vt 0.119286 0.047714
vt 0.286287 0.214715
vt 0.071572 0.095429
vt 0.627007 0.642698
vt 0.593269 0.642801
vt 0.626801 0.575220
vt 0.728742 0.879182
vt 0.762585 0.845546
vt 0.796324 0.845650
vt 0.524859 0.916787
vt 0.423642 0.917098
vt 0.423331 0.815880
vt 0.405573 0.481569
vt 0.501002 0.338425
vt 0.524859 0.362283
vt 0.354075 0.917201
vt 0.320233 0.950837
vt 0.320336 0.917098
vt 0.624712 0.001035
vt 0.320854 0.067582
vt 0.287322 0.000000
vt 0.286287 0.553141
vt 0.320647 0.135060
vt 0.286287 0.337391
vt 0.286287 0.892619
vt 0.185070 0.892930
vt 0.285769 0.723924
vt 0.728380 0.997579
vt 0.694641 0.997682
vt 0.694382 0.913335
vt 0.826478 0.752191
vt 0.796324 0.691824
vt 0.826507 0.676748
vt 0.593062 0.575323
vt 0.559322 0.575427
vt 0.559219 0.541688
vt 0.813090 0.879389
vt 0.729053 0.980865
vt 0.728742 0.879648
vt 0.477144 0.553140
vt 0.522874 0.203159
vt 0.523081 0.135681
vt 0.286287 0.917201
vt 0.320026 0.917098
vt 0.320233 0.984576
vt 0.049285 0.790677
vt 0.015546 0.790781
vt 0.048250 0.453287
vt 0.592803 0.980709
vt 0.559064 0.980813
vt 0.558857 0.913335
vt 0.592596 0.913231
vt 0.830373 0.608649
vt 0.829545 0.338736
vt 0.930866 0.372165
vt 0.421864 0.135370
vt 0.320440 0.202538
vt 0.388125 0.135267
vt 0.522563 0.304376
vt 0.047714 0.071572
vt 0.000000 0.071572
vt 0.387607 0.303962
vt 0.421243 0.337804
vt 0.151020 0.892619
vt 0.049285 0.724235
vt 0.150502 0.723924
vt 0.000000 0.405573
vt 0.047715 0.453287
vt 0.218809 0.960615
vt 0.218601 0.893137
vt 0.286080 0.892930
vt 0.453287 0.576998
vt 0.357858 0.576998
vt 0.116763 0.892930
vt 0.116970 0.960408
vt 0.049492 0.960615
vt 0.592958 0.541584
vt 0.626697 0.541481
vt 0.167001 0.238572
vt 0.457070 0.917098
vt 0.457174 0.950837
vt 0.423435 0.950940
vt 0.728121 0.913231
vt 0.421657 0.202848
vt 0.525480 0.541791
vt 0.501002 0.624712
vt 0.524859 0.984575
vt 0.491120 0.984679
vt 0.490913 0.917201
vt 0.626800 0.980709
vt 0.593061 0.980813
vt 0.592958 0.947074
vt 0.320129 0.303755
vt 0.523288 0.068203
vt 0.558701 0.372993
vt 0.592440 0.372889
vt 0.761860 0.608545
vt 0.694589 0.676230
vt 0.761446 0.473589
vt 0.931590 0.608338
vt 0.965951 0.811083
vt 0.932212 0.811186
vt 0.931590 0.608752
vt 0.050113 0.453287
vt 0.286287 0.454012
vt 0.049285 0.723200
vt 0.477144 0.648569
vt 0.524859 0.696284
vt 0.405573 0.624712
vt 0.387918 0.202745
vt 0.931590 0.811290
vt 0.965330 0.811186
vt 0.965847 0.979882
vt 0.728742 0.912921
vt 0.626800 0.677058
vt 0.728018 0.676748
vt 0.932108 0.979985
vt 0.795478 0.338425
vt 0.794442 0.001035
vt 0.963138 0.000518
vt 0.388332 0.067789
vt 0.477144 0.743998
vt 0.405573 0.720141
vt 0.429430 0.696284
vt 0.660747 0.980813
vt 0.627007 0.980916
vt 0.660643 0.947074
vt 0.381715 0.648569
vt 0.626800 0.913438
vt 0.694279 0.913231
vt 0.625747 0.338425
vt 0.794442 0.337908
vt 0.334001 0.600855
vt 0.524859 0.791713
vt 0.501002 0.815570
vt 0.071572 0.000000
vt 0.095429 0.023857
vt 0.422071 0.984265
vt 0.387814 0.815673
vt 0.421553 0.815570
vt 0.184552 0.724235
vt 0.930762 0.608649
vt 0.830373 0.878871
vt 0.829545 0.608959
vt 0.525894 0.676748
vt 0.286494 0.984679
vt 0.524962 0.373096
vt 0.524859 0.339357
vt 0.660747 0.642594
vt 0.626593 0.913231
vt 0.592854 0.913335
vt 0.014511 0.453391
vt 0.998429 0.169213
vt 0.964690 0.169316
vt 0.964173 0.000621
vt 0.794875 0.372268
vt 0.761136 0.372372
vt 0.828510 0.338425
vt 0.422071 0.067892
vt 0.524652 0.917098
vt 0.693658 0.372579
vt 0.763102 0.676851
vt 0.796220 0.879389
vt 0.353972 0.950940
vt 0.388332 0.984369
vt 0.694382 0.946970
vt 0.151020 0.723924
vt 0.181232 0.814444
vt 0.151107 0.950254
vt 0.116970 0.994147
vt 0.151020 0.893033
vt 0.150709 0.994250
vt 1.000000 0.709866
vt 0.965951 0.608752
vt 0.999690 0.608649
vt 0.729363 0.676748
vt 0.793407 0.000518
vt 0.998429 0.338322
vt 0.964173 0.169730
vt 0.997912 0.169627
vt 0.627111 0.676437
vt 0.559529 0.642905
vt 0.525583 0.913231
vt 0.524859 0.677058
vt 0.626800 0.912921
vt 0.627525 0.913231
vt 0.965330 0.338425
vt 0.932211 0.540963
vt 0.931590 0.338529
vt 0.457070 0.950940
vt 0.457174 0.984679
vt 0.423435 0.984783
vt 0.423331 0.951044
vt 0.014470 0.559980
vt 0.003830 0.485291
vt 0.014511 0.453287
vt 0.813400 0.980606
vt 0.423331 0.917201
vt 0.829545 0.675816
vt 0.795599 0.608441
vt 0.660540 0.575116
vt 0.829856 0.980347
vt 0.829545 0.879130
vt 0.913893 0.878871
vt 0.795289 0.507224
vt 0.964173 0.337908
vt 0.795185 0.473485
vt 0.117281 0.892930
vt 0.623677 0.338426
vt 0.965330 0.608649
vt 0.626076 0.676748
vt 0.015029 0.959580
vt 0.048250 0.790781
vt 0.048768 0.959476
vt 0.524859 0.913335
vt 0.558598 0.913231
vt 0.558857 0.997579
vt 0.525118 0.997683
vt 0.966261 0.709969
vt 0.761550 0.507328
vt 0.286287 0.815880
vt 0.387814 0.916787
vt 0.286597 0.917098
vt 0.218601 0.994147
vt 0.184862 0.994250
vt 0.184552 0.893033
vt 0.218291 0.892930
vt 0.965847 0.811290
vt 0.999586 0.811186
vt 0.999897 0.912403
vt 0.966158 0.912507
vt 0.965433 0.372165
vt 0.285459 0.723924
vt 0.286287 0.960408
vt 0.914203 0.980089
vt 0.966261 0.507328
vt 1.000000 0.507431
vt 0.930762 0.338425
vt 0.049285 0.893137
vt 0.049803 0.892930
vt 0.014511 0.790885
vt 0.387504 0.815570
vt 0.000000 0.000000
vt 0.965951 0.540860
vt 0.524548 0.815570
vt 0.997912 0.000518
vt 0.965951 0.608545
vt 0.964690 0.338425
vt 0.931590 0.878561
vt 0.965537 0.608545
vt 0.931798 0.608648
vt 0.931590 0.541170
vt 0.965330 0.541067
vn -0.000000 1.000000 0.000000
vn 0.000000 0.000000 -1.000000
vn -1.000000 0.000000 0.000000
vn 1.000000 -0.000000 0.000000
vn 0.000000 0.000000 1.000000
vn 0.000000 -1.000000 0.000000
vn 0.000000 0.000000 0.000000
usemtl Material.001
s off
f 28/1/1 101/2/1 92/3/1
f 55/4/1 8/5/1 113/6/1
f 122/7/2 68/8/2 8/9/2
f 117/10/3 89/11/3 120/12/3
f 45/13/1 1/14/1 25/15/1
f 121/16/1 84/17/1 15/18/1
f 108/19/1 64/20/1 30/21/1
f 6/22/1 1/14/1 45/13/1
f 103/23/1 97/24/1 30/21/1
f 106/25/4 91/26/4 48/27/4
f 119/28/5 110/29/5 83/30/5
f 9/31/1 36/32/1 102/33/1
f 80/34/1 73/35/1 26/36/1
f 110/37/4 71/38/4 83/39/4
f 45/13/1 53/40/1 6/22/1
f 108/19/1 14/41/1 27/42/1
f 22/43/2 105/44/2 107/45/2
f 61/46/1 115/47/1 90/48/1
f 20/49/1 21/50/1 23/51/1
f 20/49/1 23/51/1 19/52/1
f 116/53/2 93/54/2 104/55/2
f 3/56/1 100/57/1 77/58/1
f 108/19/1 66/59/1 14/41/1
f 123/60/1 92/3/1 104/61/1
f 94/62/1 41/63/1 97/24/1
f 5/64/3 37/65/3 104/66/3
f 38/67/1 101/2/1 62/68/1
f 81/69/3 22/70/3 28/71/3
f 53/40/1 33/72/1 35/73/1
f 123/74/4 107/75/4 105/76/4
f 113/6/1 52/77/1 67/78/1
f 101/2/1 79/79/1 92/3/1
f 73/80/5 80/81/5 15/82/5
f 119/28/5 83/30/5 24/83/5
f 3/56/1 27/42/1 10/84/1
f 73/35/1 86/85/1 26/36/1
f 33/72/1 32/86/1 35/73/1
f 105/87/1 22/88/1 81/89/1
f 8/90/4 68/91/4 121/92/4
f 64/20/1 103/23/1 30/21/1
f 100/57/1 58/93/1 97/24/1
f 108/19/1 27/42/1 49/94/1
f 52/77/1 98/95/1 11/96/1
f 124/97/1 95/98/1 120/99/1
f 116/53/2 104/55/2 79/100/2
f 122/101/1 47/102/1 34/103/1
f 4/104/1 93/105/1 118/106/1
f 113/6/1 80/34/1 52/77/1
f 40/107/1 46/108/1 51/109/1
f 40/107/1 51/109/1 32/86/1
f 10/84/1 41/63/1 94/62/1
f 32/86/1 51/109/1 35/73/1
f 3/56/1 17/110/1 100/57/1
f 72/111/2 106/112/2 48/113/2
f 38/114/3 116/115/3 79/116/3
f 72/111/2 48/113/2 37/117/2
f 61/118/4 90/119/4 7/120/4
f 108/19/1 50/121/1 64/20/1
f 46/108/1 54/122/1 56/123/1
f 10/84/1 94/62/1 17/110/1
f 46/108/1 56/123/1 57/124/1
f 47/125/3 122/126/3 29/127/3
f 46/108/1 57/124/1 59/128/1
f 46/108/1 59/128/1 51/109/1
f 29/127/3 70/129/3 73/130/3
f 74/131/3 115/19/3 99/132/3
f 35/73/1 60/133/1 6/22/1
f 35/73/1 6/22/1 53/40/1
f 12/134/1 2/135/1 56/123/1
f 12/134/1 56/123/1 54/122/1
f 37/136/1 107/137/1 104/61/1
f 104/138/5 91/139/5 5/140/5
f 48/27/4 91/26/4 31/141/4
f 38/142/5 4/143/5 118/144/5
f 73/35/1 85/145/1 86/85/1
f 22/43/2 107/45/2 28/146/2
f 98/95/1 87/147/1 69/148/1
f 16/149/1 55/4/1 113/6/1
f 80/150/4 121/92/4 15/151/4
f 90/48/1 115/47/1 74/152/1
f 29/127/3 122/126/3 70/129/3
f 99/153/5 7/154/5 90/155/5
f 114/156/1 63/157/1 99/158/1
f 112/159/1 77/58/1 50/121/1
f 105/87/1 81/89/1 96/160/1
f 63/157/1 69/148/1 99/158/1
f 63/157/1 18/161/1 69/148/1
f 68/8/2 122/7/2 88/162/2
f 18/161/1 11/96/1 69/148/1
f 122/7/2 8/9/2 70/163/2
f 121/16/1 29/164/1 84/17/1
f 104/138/5 31/165/5 91/139/5
f 108/19/1 49/94/1 112/159/1
f 84/166/3 29/127/3 73/130/3
f 11/96/1 98/95/1 69/148/1
f 77/167/6 100/168/6 97/169/6
f 91/170/1 72/171/1 5/172/1
f 43/173/1 117/174/1 76/175/1
f 27/42/1 14/41/1 10/84/1
f 88/162/2 122/7/2 39/176/2
f 115/19/3 75/177/3 99/132/3
f 121/178/6 88/179/6 44/180/6
f 82/181/1 70/182/1 8/5/1
f 93/183/4 4/184/4 31/185/4
f 116/115/3 38/114/3 118/186/3
f 29/187/5 34/188/5 47/189/5
f 44/190/4 88/191/4 39/192/4
f 44/190/4 39/192/4 34/193/4
f 113/6/1 8/5/1 80/34/1
f 92/3/1 79/79/1 104/61/1
f 80/150/4 8/90/4 121/92/4
f 9/194/6 102/195/6 66/196/6
f 70/182/1 85/145/1 73/35/1
f 110/37/4 109/197/4 71/38/4
f 73/80/5 15/82/5 84/198/5
f 120/99/1 95/98/1 18/161/1
f 99/158/1 75/199/1 109/200/1
f 108/19/1 112/159/1 50/121/1
f 16/149/1 113/6/1 65/201/1
f 24/202/3 42/203/3 124/204/3
f 103/23/1 77/58/1 97/24/1
f 120/99/1 18/161/1 63/157/1
f 99/158/1 109/200/1 110/205/1
f 78/206/4 61/118/4 7/120/4
f 99/158/1 110/205/1 111/207/1
f 106/208/1 72/171/1 91/170/1
f 99/158/1 111/207/1 114/156/1
f 108/19/1 9/209/1 66/59/1
f 34/103/1 39/210/1 122/101/1
f 82/181/1 8/5/1 55/4/1
f 4/184/4 13/211/4 31/185/4
f 75/212/2 61/213/2 78/214/2
f 112/159/1 3/56/1 77/58/1
f 95/98/1 124/97/1 75/199/1
f 10/84/1 17/110/1 3/56/1
f 75/199/1 124/97/1 109/200/1
f 42/215/2 71/216/2 109/217/2
f 42/215/2 109/217/2 124/218/2
f 79/79/1 101/2/1 38/67/1
f 43/173/1 89/219/1 117/174/1
f 82/181/1 85/145/1 70/182/1
f 94/62/1 97/24/1 58/93/1
f 110/205/1 119/220/1 120/99/1
f 110/205/1 120/99/1 111/207/1
f 104/61/1 107/137/1 123/60/1
f 114/221/4 43/222/4 76/223/4
f 63/224/5 114/225/5 76/226/5
f 63/224/5 76/226/5 117/227/5
f 89/228/2 43/229/2 111/230/2
f 89/228/2 111/230/2 120/231/2
f 29/187/5 121/232/5 34/188/5
f 93/105/1 116/233/1 118/106/1
f 81/69/3 28/71/3 92/234/3
f 24/202/3 124/204/3 119/235/3
f 71/236/1 42/237/1 24/175/1
f 93/54/2 31/238/2 104/55/2
f 123/74/4 105/76/4 96/239/4
f 5/64/3 72/240/3 37/65/3
f 115/241/2 61/213/2 75/212/2
f 114/221/4 111/242/4 43/222/4
f 119/243/7 124/243/7 120/243/7
f 34/188/5 121/232/5 44/244/5
f 117/10/3 120/12/3 63/245/3
f 99/153/5 90/155/5 74/246/5
f 71/236/1 24/175/1 83/247/1
f 121/178/6 68/248/6 88/179/6
f 80/34/1 26/36/1 52/77/1
f 38/142/5 13/249/5 4/143/5
f 92/250/5 123/251/5 96/252/5
f 92/250/5 96/252/5 81/253/5
f 52/77/1 26/36/1 98/95/1
