# Blender v2.64 (sub 0) OBJ File: 'sandbox-03.blend'
# www.blender.org
mtllib sandbox-04.mtl
o floor_Plane.002
v 75.506493 -1.000000 3.636726
v -52.493507 -1.000000 3.636726
v 75.506493 -1.000000 -116.363274
v -52.493507 -1.000000 -116.363274
v 32.839825 -1.000000 3.636726
v -9.826838 -1.000000 3.636726
v 32.839825 -1.000000 -116.363274
v -9.826838 -1.000000 -116.363274
v -52.493507 -1.000000 -76.363274
v -52.493507 -1.000000 -36.363274
v 75.506493 -1.000000 -36.363274
v 75.506493 -1.000000 -76.363274
v 32.839825 -1.000000 -76.363274
v 32.839825 -1.000000 -36.363274
v -9.826838 -1.000000 -76.363274
v -9.826838 -1.000000 -36.363274
vt -1.163836 -1.163837
vt -4.491508 -1.163835
vt -4.491511 -4.491508
vt -1.163838 -4.491510
vt 2.163836 -4.491511
vt 5.491511 -4.491511
vt 5.491511 -1.163837
vt 2.163837 -1.163838
vt 5.491508 5.491511
vt 2.163836 5.491508
vt 2.163837 2.163836
vt 5.491511 2.163838
vt -1.163835 5.491507
vt -1.163835 2.163836
vt -4.491506 5.491507
vt -4.491506 2.163836
vn 0.000000 1.000000 0.000000
usemtl Material.002
s off
f 16/1/1 10/2/1 2/3/1
f 16/1/1 2/3/1 6/4/1
f 5/5/1 1/6/1 11/7/1
f 5/5/1 11/7/1 14/8/1
f 14/8/1 16/1/1 6/4/1
f 14/8/1 6/4/1 5/5/1
f 3/9/1 7/10/1 13/11/1
f 3/9/1 13/11/1 12/12/1
f 12/12/1 13/11/1 14/8/1
f 12/12/1 14/8/1 11/7/1
f 7/10/1 8/13/1 15/14/1
f 7/10/1 15/14/1 13/11/1
f 13/11/1 15/14/1 16/1/1
f 13/11/1 16/1/1 14/8/1
f 8/13/1 4/15/1 9/16/1
f 8/13/1 9/16/1 15/14/1
f 15/14/1 9/16/1 10/2/1
f 15/14/1 10/2/1 16/1/1
o platform_Plane.001
v 19.506495 0.000000 2.428694
v -8.493506 0.000000 2.428694
v 19.506495 0.000000 -9.571306
v -8.493506 0.000000 -9.571306
v 4.839827 0.000000 2.428694
v -1.826839 0.000000 2.428694
v 4.839827 0.000000 -9.571306
v -1.826839 0.000000 -9.571306
v -8.493506 0.000000 -5.571306
v -8.493506 0.000000 -1.571306
v 19.506495 0.000000 -1.571306
v 19.506495 0.000000 -5.571306
v 4.839827 0.000000 -5.571306
v 4.839827 0.000000 -1.571306
v -1.826839 0.000000 -5.571306
v -1.826839 0.000000 -1.571306
v 4.839827 -1.348972 -21.292440
v -1.826839 -1.348972 -21.292440
v 19.506495 -2.012950 2.448099
v -8.493506 -2.012950 2.448099
v 19.506495 -2.012950 -9.551901
v -8.493506 -2.012950 -9.551901
v 4.839827 -2.012950 2.448099
v -1.826839 -2.012950 2.448099
v 4.839827 -2.012950 -9.551901
v -1.826839 -2.012950 -9.551901
v -8.493506 -2.012950 -5.551897
v -8.493506 -2.012950 -1.551899
v 19.506495 -2.012950 -1.551899
v 19.506495 -2.012950 -5.551897
v 4.839827 -2.012950 -5.551897
v 4.839827 -2.012950 -1.551899
v -1.826839 -2.012950 -5.551897
v -1.826839 -2.012950 -1.551899
v 4.839827 -3.361922 -21.273033
v -1.826839 -3.361922 -21.273033
vt -0.805274 0.207192
vt -1.040397 0.207914
vt -1.039676 0.443037
vt -0.804552 0.442316
vt -0.569428 0.441594
vt -0.052156 0.440008
vt -0.052877 0.204884
vt -0.570149 0.206471
vt -0.054320 -0.265364
vt -0.571592 -0.263777
vt -0.570871 -0.028653
vt -0.053599 -0.030240
vt -0.806716 -0.263055
vt -0.805994 -0.027932
vt -1.041840 -0.262334
vt -1.041118 -0.027210
vt -0.573706 -0.952756
vt -0.808830 -0.952035
vt 0.700962 0.207192
vt 0.700240 0.442316
vt 0.935364 0.443037
vt 0.936085 0.207913
vt -0.051434 0.204884
vt -0.052156 0.440007
vt 0.465117 0.441594
vt 0.465838 0.206471
vt -0.049991 -0.265364
vt -0.050713 -0.030240
vt 0.466559 -0.028653
vt 0.467281 -0.263777
vt 0.701683 -0.027932
vt 0.702404 -0.263056
vt 0.936807 -0.027210
vt 0.937528 -0.262334
vt 0.704518 -0.952035
vt 0.469394 -0.952756
vt 0.182968 1.156586
vt 0.184006 1.866529
vt 0.419129 1.865807
vt 0.418092 1.155866
vt -0.762816 1.197611
vt -0.052876 1.195433
vt -0.053599 0.960309
vt -0.763537 0.962487
vt 0.656431 0.443037
vt 0.654253 1.152976
vt 0.889377 1.153698
vt 0.891555 0.443759
vt 1.524567 0.287023
vt 1.522389 0.996962
vt 2.039662 0.998550
vt 2.041840 0.288609
vt -0.762095 1.432735
vt -0.052156 1.430557
vt 0.937565 1.526803
vt 1.522389 1.124310
vt 1.522352 0.287023
vt 0.937528 0.689515
vt -0.806716 1.153698
vt -0.804538 0.443758
vt -1.039662 0.443037
vt -1.041840 1.152977
vt 1.522390 -0.550264
vt 0.937566 -0.952756
vt 0.937528 -0.115469
vt 1.522353 0.287023
vt 0.419129 0.444480
vt 0.418092 1.154422
vt 0.653216 1.155144
vt 0.654253 0.445201
vt 0.182968 1.153701
vt 0.184006 0.443759
vt -0.051118 0.443037
vt -0.052156 1.152980
vt -0.052156 1.157307
vt -0.051118 1.867250
vt 0.654253 1.865086
vt -0.055185 0.443037
vt -0.765124 0.445215
vn 0.000000 0.993442 -0.114334
vn 0.000000 -1.000000 0.000000
vn 0.000000 -0.993442 0.114334
vn 1.000000 0.000000 0.000000
vn 0.000000 0.009640 0.999954
vn 0.000000 -0.009641 -0.999954
vn 0.000000 -0.009640 -0.999954
vn -1.000000 0.000000 -0.000000
usemtl Material.003
s off
f 32/17/1 26/18/1 18/19/1
f 32/17/1 18/19/1 22/20/1
f 21/21/1 17/22/1 27/23/1
f 21/21/1 27/23/1 30/24/1
f 30/24/1 32/17/1 22/20/1
f 30/24/1 22/20/1 21/21/1
f 19/25/1 23/26/1 29/27/1
f 19/25/1 29/27/1 28/28/1
f 28/28/1 29/27/1 30/24/1
f 28/28/1 30/24/1 27/23/1
f 23/26/1 24/29/1 31/30/1
f 23/26/1 31/30/1 29/27/1
f 29/27/1 31/30/1 32/17/1
f 29/27/1 32/17/1 30/24/1
f 24/29/1 20/31/1 25/32/1
f 24/29/1 25/32/1 31/30/1
f 31/30/1 25/32/1 26/18/1
f 31/30/1 26/18/1 32/17/1
f 24/29/2 23/26/2 33/33/2
f 24/29/2 33/33/2 34/34/2
f 50/35/3 40/36/3 36/37/3
f 50/35/3 36/37/3 44/38/3
f 45/39/3 35/40/3 39/41/3
f 45/39/3 39/41/3 48/42/3
f 48/42/3 39/41/3 40/36/3
f 48/42/3 40/36/3 50/35/3
f 37/43/3 46/44/3 47/45/3
f 37/43/3 47/45/3 41/46/3
f 46/44/3 45/39/3 48/42/3
f 46/44/3 48/42/3 47/45/3
f 41/46/3 47/45/3 49/47/3
f 41/46/3 49/47/3 42/48/3
f 47/45/3 48/42/3 50/35/3
f 47/45/3 50/35/3 49/47/3
f 42/48/3 49/47/3 43/49/3
f 42/48/3 43/49/3 38/50/3
f 49/47/3 50/35/3 44/38/3
f 49/47/3 44/38/3 43/49/3
f 42/48/4 52/51/4 51/52/4
f 42/48/4 51/52/4 41/46/4
f 46/53/5 28/54/5 27/55/5
f 46/53/5 27/55/5 45/56/5
f 22/57/6 40/58/6 39/59/6
f 22/57/6 39/59/6 21/60/6
f 52/61/7 34/62/7 33/63/7
f 52/61/7 33/63/7 51/64/7
f 41/65/8 23/66/8 19/67/8
f 41/65/8 19/67/8 37/68/8
f 40/58/6 22/57/6 18/69/6
f 40/58/6 18/69/6 36/70/6
f 23/71/5 41/72/5 51/73/5
f 23/71/5 51/73/5 33/74/5
f 24/75/8 42/76/8 38/77/8
f 24/75/8 38/77/8 20/78/8
f 34/79/9 52/80/9 42/81/9
f 34/79/9 42/81/9 24/82/9
f 43/83/9 25/84/9 20/85/9
f 43/83/9 20/85/9 38/86/9
f 26/87/9 44/88/9 36/89/9
f 26/87/9 36/89/9 18/90/9
f 44/88/9 26/87/9 25/84/9
f 44/88/9 25/84/9 43/83/9
f 28/54/5 46/53/5 37/91/5
f 28/54/5 37/91/5 19/92/5
f 17/93/5 35/85/5 45/56/5
f 17/93/5 45/56/5 27/55/5
f 35/94/6 17/95/6 21/60/6
f 35/94/6 21/60/6 39/59/6
o walls_Plane
v 43.706757 -4.032856 1.636728
v -16.060379 -4.032856 1.568014
v 43.706757 10.659550 1.636728
v -16.060379 10.659550 1.568014
v 58.905846 -4.032856 -12.363274
v 58.905846 10.659550 -12.363274
v 57.815056 -4.032856 -29.398727
v 57.815056 10.659550 -29.398727
v 49.228535 -4.032856 -33.253151
v 49.228535 10.659550 -33.253151
v 41.809586 -4.032856 -33.974556
v 41.809586 10.659550 -33.974556
v 37.087685 -4.032856 -43.502174
v 37.087685 10.659550 -43.502174
v 45.215908 -4.032856 -51.999088
v 45.215908 10.659550 -51.999088
v 62.570412 -4.032856 -51.999088
v 62.570412 10.659550 -51.999088
v 69.999092 -4.032856 -58.065941
v 69.999092 10.659550 -58.065941
v 69.825462 -4.032856 -82.614700
v 69.825462 10.659550 -82.614700
v 50.138226 -4.032856 -92.189674
v 50.138226 10.659550 -92.189674
v -5.576245 -4.032856 -92.189674
v -5.576245 10.659550 -92.189674
v -19.154655 -4.032856 -103.122368
v -19.154655 10.659550 -103.122368
v -41.086617 -4.032856 -96.956940
v -41.086617 10.659550 -96.956940
v -51.158089 -4.032856 -76.201569
v -51.158089 10.659550 -76.201569
v -43.873108 -4.032856 -52.797478
v -43.873108 10.659550 -52.797478
v -43.930782 -4.032856 -26.190254
v -43.930782 10.659550 -26.190254
v -29.099541 -4.032856 -4.066378
v -29.099541 10.659550 -4.066378
vt 1.398368 1.142273
vt 3.904145 0.000537
vt 3.844509 1.142714
vt 0.924262 0.000000
vt 0.864626 1.142177
vt 7.457497 0.000135
vt 8.265505 1.142177
vt 7.517128 1.142312
vt 8.701362 1.142232
vt 8.265505 0.000124
vt 8.641729 0.000056
vt 9.009433 1.142176
vt 8.949799 0.000000
vt 6.951153 0.000080
vt 7.457497 1.142177
vt 7.010786 1.142257
vt 6.637269 0.000137
vt 6.696902 1.142314
vt 5.927112 0.000048
vt 6.577634 1.142352
vt 5.867477 1.142224
vt 5.661353 0.000000
vt 5.601719 1.142176
vt 4.473221 0.000193
vt 5.601718 1.142177
vt 4.532854 1.142369
vt -7.082386 1.142854
vt -8.009433 0.000834
vt -7.142019 0.000678
vt -4.804156 1.142443
vt -4.863789 0.000267
vt -4.177692 1.142331
vt -4.237328 0.000154
vt -3.321036 1.142176
vt -3.380670 0.000000
vt -0.061057 0.000156
vt 0.864626 1.142176
vt -0.001425 1.142333
vt -1.119310 0.000347
vt -1.059678 1.142523
vt -2.285857 0.000558
vt -2.226226 1.142734
vt -3.321036 0.000744
vt -3.261404 1.142920
vt 4.413583 1.142816
vt 1.458003 0.000096
vt 8.205871 0.000000
vt 8.325140 1.142300
vt 7.397866 0.000000
vt 6.637269 0.000176
vt 5.542081 0.000000
vt -7.949800 1.143010
vt 0.804996 0.000000
vt 4.473220 0.000639
vn 0.001150 0.000000 -0.999999
vn -0.677498 0.000000 -0.735525
vn -0.997956 0.000000 0.063900
vn -0.409524 0.000000 0.912299
vn -0.096782 0.000000 0.995306
vn -0.895998 0.000000 0.444058
vn -0.722610 0.000000 -0.691256
vn -0.000000 -0.000000 -1.000000
vn -0.632541 0.000000 -0.774527
vn -0.999975 0.000000 0.007073
vn -0.437370 0.000000 0.899282
vn -0.000000 0.000000 1.000000
vn -0.627139 0.000000 0.778907
vn 0.270626 0.000000 0.962684
vn 0.899673 0.000000 0.436563
vn 0.954814 0.000000 -0.297204
vn 0.999998 0.000000 0.002168
vn 0.830627 0.000000 -0.556829
vn 0.396664 0.000000 -0.917964
usemtl Material.001
s off
f 55/96/10 54/97/10 56/98/10
f 57/99/11 55/96/11 58/100/11
f 59/101/12 58/102/12 60/103/12
f 61/104/13 60/105/13 62/106/13
f 63/107/14 62/106/14 64/108/14
f 65/109/15 64/110/15 66/111/15
f 67/112/16 66/111/16 68/113/16
f 69/114/17 68/115/17 70/116/17
f 71/117/18 70/116/18 72/118/18
f 73/119/19 72/120/19 74/121/19
f 75/122/20 74/123/20 76/124/20
f 77/125/21 76/124/21 78/126/21
f 79/127/22 78/126/22 80/128/22
f 81/129/23 80/128/23 82/130/23
f 83/131/24 82/132/24 84/133/24
f 85/134/25 84/133/25 86/135/25
f 87/136/26 86/135/26 88/137/26
f 89/138/27 88/137/27 90/139/27
f 54/97/28 90/140/28 56/98/28
f 53/141/10 54/97/10 55/96/10
f 53/141/11 55/96/11 57/99/11
f 57/142/12 58/102/12 59/101/12
f 59/143/13 60/105/13 61/104/13
f 61/104/14 62/106/14 63/107/14
f 63/144/15 64/110/15 65/109/15
f 65/109/16 66/111/16 67/112/16
f 67/145/17 68/115/17 69/114/17
f 69/114/18 70/116/18 71/117/18
f 71/146/19 72/120/19 73/119/19
f 73/147/20 74/123/20 75/122/20
f 75/122/21 76/124/21 77/125/21
f 77/125/22 78/126/22 79/127/22
f 79/127/23 80/128/23 81/129/23
f 81/148/24 82/132/24 83/131/24
f 83/131/25 84/133/25 85/134/25
f 85/134/26 86/135/26 87/136/26
f 87/136/27 88/137/27 89/138/27
f 89/149/28 90/140/28 54/97/28
